<svg width="1032" height="1032" viewBox="0 0 1032 1032" fill="none" xmlns="http://www.w3.org/2000/svg">
<g filter="url(#filter0_d_3320_34)">
<rect x="4.5" y="0.5" width="1023" height="1023" stroke="black" shape-rendering="crispEdges"/>
<path d="M266 462.206L339.75 462.205L529.587 870H457.203L266 462.206Z" fill="#AE1912"/>
<path d="M738.996 462.206H765.999L578.328 870.001H551.325L738.996 462.206Z" fill="#AE1912"/>
<path d="M477.958 804.755H590.731L575.785 870.002H496.98L477.958 804.755Z" fill="#AE1912"/>
<path d="M564.91 763.973H517.352L440.983 598.137H641.958L564.91 763.973Z" fill="#AE1912"/>
<rect x="521.434" y="560.076" width="40.7607" height="40.7793" fill="#AE1912"/>
<path d="M412.771 436.336C452.894 453.815 500.505 463.83 551.327 463.83C594.18 463.83 634.749 456.708 670.473 443.997C665.147 510.391 609.581 562.611 541.816 562.611C471.465 562.611 414.261 506.33 412.771 436.336ZM412.739 368.357C452.869 385.845 500.492 395.864 551.327 395.864C594.348 395.864 635.068 388.687 670.894 375.882V417.149C636.09 430.853 595.231 438.83 551.327 438.83C499.145 438.83 451.263 427.561 412.739 408.803V368.357ZM412.739 300.391C452.869 317.879 500.492 327.898 551.327 327.898C594.348 327.898 635.068 320.721 670.894 307.916V349.184C636.09 362.887 595.231 370.864 551.327 370.864C499.145 370.864 451.263 359.595 412.739 340.837V300.391ZM541.816 155C612.152 155 669.345 211.258 670.859 281.23C636.063 294.925 595.217 302.898 551.327 302.898C499.354 302.898 451.647 291.718 413.202 273.095C418.775 206.948 474.228 155 541.816 155Z" fill="#AE1912"/>
<path d="M605.676 497.549H540.458V266.464H605.676V497.549Z" fill="#AE1912"/>
</g>
<defs>
<filter id="filter0_d_3320_34" x="0" y="0" width="1032" height="1032" filterUnits="userSpaceOnUse" color-interpolation-filters="sRGB">
<feFlood flood-opacity="0" result="BackgroundImageFix"/>
<feColorMatrix in="SourceAlpha" type="matrix" values="0 0 0 0 0 0 0 0 0 0 0 0 0 0 0 0 0 0 127 0" result="hardAlpha"/>
<feOffset dy="4"/>
<feGaussianBlur stdDeviation="2"/>
<feComposite in2="hardAlpha" operator="out"/>
<feColorMatrix type="matrix" values="0 0 0 0 0 0 0 0 0 0 0 0 0 0 0 0 0 0 0.25 0"/>
<feBlend mode="normal" in2="BackgroundImageFix" result="effect1_dropShadow_3320_34"/>
<feBlend mode="normal" in="SourceGraphic" in2="effect1_dropShadow_3320_34" result="shape"/>
</filter>
</defs>
</svg>
